<svg width="23" height="19" viewBox="0 0 23 19" fill="none" xmlns="http://www.w3.org/2000/svg">
<path d="M1.27778 8.13161C0.57208 8.13161 -6.16935e-08 8.70369 0 9.40939C6.16945e-08 10.1151 0.572081 10.6872 1.27778 10.6872L1.27778 8.13161ZM22.6257 10.3129C23.1247 9.81391 23.1247 9.00486 22.6257 8.50586L14.494 0.374131C13.995 -0.124872 13.186 -0.124872 12.687 0.374132C12.188 0.873135 12.188 1.68218 12.687 2.18118L19.9152 9.40938L12.687 16.6376C12.188 17.1366 12.188 17.9456 12.687 18.4446C13.186 18.9436 13.995 18.9436 14.494 18.4446L22.6257 10.3129ZM1.27778 9.40939L1.27778 10.6872L21.7222 10.6872L21.7222 9.40938L21.7222 8.13161L1.27778 8.13161L1.27778 9.40939Z" fill="#2C4F3C"/>
</svg>
