<svg width="29" height="25" viewBox="0 0 29 25" fill="none" xmlns="http://www.w3.org/2000/svg">
<path fill-rule="evenodd" clip-rule="evenodd" d="M9.42739 0.0842981C8.58985 0.395418 7.28276 1.07887 6.33692 1.70017C5.2053 2.44351 3.65052 3.86124 2.87624 4.85581C1.48549 6.64216 0.757945 8.45906 0.339882 11.1902C0.0587182 13.0267 0.0387241 13.4929 0.0127828 18.8234C-0.0148011 24.4925 -0.0399495 24.1367 0.419745 24.5859C0.863296 25.0194 0.600881 24.9999 6.00359 24.9999C11.2217 24.9999 11.039 25.0103 11.4701 24.6889C11.5802 24.6069 11.7391 24.4253 11.8233 24.2855L11.9762 24.0313L11.9916 19.2012L12.007 14.3711L11.8846 14.0931C11.7409 13.7667 11.3465 13.4029 11.0486 13.3221C10.9265 13.289 9.90889 13.2663 8.53531 13.2661L6.22721 13.2658V12.9177C6.22721 12.1253 6.45841 10.7805 6.74785 9.88946C7.1326 8.70487 7.71968 7.74976 8.57008 6.92489C9.26387 6.25189 10.0673 5.71744 11.1966 5.17745C12.0224 4.78264 12.1463 4.68467 12.3732 4.2468C12.4333 4.13084 12.4733 3.92417 12.4753 3.71987C12.4782 3.42414 12.4404 3.30403 12.1615 2.72059C11.0999 0.500471 11.0131 0.359607 10.5697 0.138541C10.2445 -0.023578 9.77755 -0.0457179 9.42739 0.0842981ZM26.1767 0.0437269C25.8628 0.100349 24.3868 0.806166 23.5875 1.28184C21.1627 2.72497 19.27 4.65838 18.1624 6.82348C17.3525 8.40665 16.9513 10.0059 16.6688 12.7781C16.5937 13.5149 16.5721 14.6164 16.5519 18.7676C16.5238 24.499 16.4984 24.136 16.9588 24.5859C17.4023 25.0193 17.1402 24.9999 22.5397 24.9999C27.8025 24.9999 27.6181 25.0111 28.046 24.6663C28.1583 24.5759 28.3161 24.3724 28.3969 24.2142L28.5436 23.9265L28.5423 19.1358C28.5411 14.4359 28.5389 14.3404 28.4257 14.096C28.2931 13.8097 28.0908 13.5867 27.8072 13.4141C27.6136 13.2962 27.5527 13.2928 25.1742 13.2658L22.7395 13.2381L22.7568 12.7953C22.8015 11.6516 23.084 10.2905 23.4764 9.32899C23.8798 8.34034 24.363 7.61919 25.0963 6.91138C25.7636 6.26722 26.445 5.80821 27.5145 5.28239C28.5397 4.77832 28.8263 4.54602 28.9423 4.12492C29.0797 3.6265 29.0073 3.37538 28.3313 2.00216C27.954 1.23579 27.6192 0.632369 27.4901 0.486025C27.162 0.114242 26.682 -0.0474337 26.1767 0.0437269Z" fill="#B6A66A"/>
</svg>
